<svg xmlns="http://www.w3.org/2000/svg" xmlns:xlink="http://www.w3.org/1999/xlink" width="512" height="512" x="0" y="0" viewBox="0 0 512 512" style="enable-background:new 0 0 512 512" xml:space="preserve" class=""><g><path fill-rule="evenodd" d="M90.36 88.051a35.028 35.028 0 1 1-35.028 35.028A35.029 35.029 0 0 1 90.36 88.051zm308.728 3.528a79.824 79.824 0 1 1-79.824 79.821 79.825 79.825 0 0 1 79.824-79.824zm48.058 31.765a67.965 67.965 0 1 0 0 96.117 67.968 67.968 0 0 0 0-96.117zM227.333 63.873a36.688 36.688 0 1 1-36.688 36.688 36.69 36.69 0 0 1 36.688-36.688zm17.557 19.132c-15.6-15.6-42.385-4.5-42.385 17.556s26.785 33.156 42.385 17.557a24.831 24.831 0 0 0 0-35.113zm-43.99-40.78-.013.007-8.16-8.164-.012.012a11.849 11.849 0 0 0-16.765-.012l-15.11 15.111a11.874 11.874 0 0 0 0 16.777l8.16 8.16-1.609 3.9h-11.549a11.914 11.914 0 0 0-11.864 11.864v21.37a11.828 11.828 0 0 0 3.479 8.386l.011-.012a11.8 11.8 0 0 0 8.374 3.49v-.023h11.528v.023c.015 0 .021 0 .024-.009l1.6 3.907-8.162 8.158a11.874 11.874 0 0 0 0 16.777l15.111 15.111a11.874 11.874 0 0 0 16.778 0l8.156-8.161 3.9 1.61v-.008h.01l-.01 11.549a11.9 11.9 0 0 0 11.864 11.864h21.37a11.877 11.877 0 0 0 11.864-11.864v-11.544h.006v-.008l3.9-1.6 8.157 8.161a11.881 11.881 0 0 0 16.777 0l15.111-15.111-.012-.011a11.846 11.846 0 0 0 .012-16.766l-8.162-8.158 1.6-3.907 11.552.009a11.829 11.829 0 0 0 8.385-3.478l-.011-.012a11.84 11.84 0 0 0 3.49-8.374V89.876a11.831 11.831 0 0 0-3.478-8.385l-.012.012a11.8 11.8 0 0 0-8.374-3.491v.024h-11.527v-.023c-.015 0-.022 0-.024.01l-1.6-3.906 8.164-8.159a11.874 11.874 0 0 0 0-16.778l-15.114-15.112a11.823 11.823 0 0 0-16.322-.411l-8.6 8.56.012.012-.008.009-3.92-1.613.01-11.551a11.877 11.877 0 0 0-11.869-11.864h-21.37a11.894 11.894 0 0 0-11.864 11.864h.023V40.6h-.023v.017h-.006v.008zm6.433 10.1c-2.9 1.2-4.82 2.241-8.559 1.561a11.826 11.826 0 0 1-6.28-3.284l-8.162-8.148-15.107 15.116 8.152 8.153a11.837 11.837 0 0 1 2.414 13.269c-1.63 3.6-2.07 6.285-5.664 8.775a11.793 11.793 0 0 1-6.749 2.105h-11.536V111.274h11.528v-.024a11.788 11.788 0 0 1 11.092 7.718c1.319 3.512 2.992 5.763 2.193 10.153a11.826 11.826 0 0 1-3.284 6.28l-8.15 8.157 15.118 15.111 8.149-8.149a11.837 11.837 0 0 1 13.27-2.413l3.189 1.324v.007a11.789 11.789 0 0 1 7.7 11.084v11.53h21.37v-11.53a11.81 11.81 0 0 1 7.694-11.091v.007c3.514-1.334 5.825-2.993 10.176-2.2a11.833 11.833 0 0 1 6.28 3.284l8.157 8.147 15.108-15.107-8.142-8.162a11.84 11.84 0 0 1-2.413-13.27c1.64-3.622 2.109-6.313 5.665-8.775a11.786 11.786 0 0 1 6.749-2.1h11.529v-.005l.012.012.011-.012-.019-21.37v-.023h-11.535v.023a11.789 11.789 0 0 1-11.089-7.725c-1.318-3.513-2.991-5.765-2.192-10.152a11.833 11.833 0 0 1 3.284-6.28l8.152-8.159-15.124-15.107-8.146 8.143-.012-.012a11.8 11.8 0 0 1-13.262 2.428c-3.623-1.641-6.313-2.108-8.777-5.665a11.794 11.794 0 0 1-2.105-6.75V29.074h-21.366c-.008.008-.02 0-.032 0V40.6h.023a11.81 11.81 0 0 1-7.693 11.1v-.007l-1.613.639zm42.522-11.7v.009c-.007-.009 0-.009 0-.009zm3.943 1.629.006.005s-.006 0-.006-.005zm.006.005v-.005c.011 0 .023 0 0 .005zm33.452 35.778h.009c0 .006 0 .008-.009 0zm11.589 33.21c.006 0 .009 0 0 0zm-11.577 11.839h-.008c.009-.006.009 0 .008 0zm-1.8 20.47-.015.015-.009-.009zm0 0s.008 0 0 0zM204.81 160.5v-.009c.007.009 0 .009 0 .009zm0-.011s0-.006 0 0zm-37.403-37.402h-.007s0-.008.008 0zm-.007-45.054.008.006c-.011.007-.009 0-.008-.006zm253.76 77.227a22.085 22.085 0 0 0-16.142-21.266v-7.574a5.93 5.93 0 0 0-11.86 0v7.574a22.076 22.076 0 0 0-9.677 5.659c-13.873 13.873-3.99 37.679 15.607 37.679a10.213 10.213 0 1 1-10.212 10.213 5.93 5.93 0 1 0-11.86 0 22.084 22.084 0 0 0 16.142 21.266v7.574a5.93 5.93 0 1 0 11.86 0v-7.574a22.057 22.057 0 0 0 9.677-5.659c13.872-13.873 3.99-37.679-15.607-37.679A10.213 10.213 0 1 1 409.3 155.26a5.93 5.93 0 0 0 11.86 0zM225.6 332.392a6.089 6.089 0 0 1-.8-.31 138.718 138.718 0 0 0-16.958-5.393c-20.385-5.084-36.8-3.546-56.852-.231a5.891 5.891 0 0 1-1.5.049c-14.236-1.374-57.646 31.545-86.095 53.118-8.2 6.218-15.21 11.534-20.2 15l56.994 92.166c1.555 2.383 22.4-15.206 45.793-27.731 17.034-9.12 33.8-18.1 42.99-22.2a5.91 5.91 0 0 1 2.15-.587c32-2.537 61.128-2.605 89.6-2.671 16.982-.04 33.73-.08 50.9-.665 6.744-.613 15.317-6.615 21.365-9.569l111.044-54.237c7.567-3.7 9.171-15.421 3.8-21.671-6.237-7.253-15.272-8.359-23.758-4.214l-111.056 54.233c-2.591 1.265-11.164.659-14.752.882-2.639.286-2.938.648-6.274.4l-77.971-5.871a5.947 5.947 0 0 1-1.2-.214c-9.624-2.386-24.463 4.533-35.476 6.3a5.91 5.91 0 1 1-1.853-11.674 100.921 100.921 0 0 0 11.9-2.994c8.991-2.642 17.983-5.285 27.843-3.2l76.787 5.781a14.255 14.255 0 0 1 1.646-.2c.7-.047 1.792-.083 3.1-.111a17 17 0 0 0 8.569-6.027c10.011-12.559 2.9-27.834-10.362-29.006-56.82-5.023-68.846-11.161-89.379-19.148zm-4.2-14.1a123.916 123.916 0 0 0-52.85-6.1l-46.278-44.515a5.914 5.914 0 0 0-8.2 8.524l39.38 37.88q-1.842.283-3.738.594c-19.3-.7-64.008 33.2-93.464 55.538C44.957 378.785 36 385.574 32.287 387.6a5.911 5.911 0 0 0-2.2 8.292L90.1 492.946c4.345 7.284 33.2-8.354 61.435-23.471 16.26-8.7 32.272-17.277 41.523-21.473 31.617-2.46 59.954-2.527 87.659-2.591 7.2-.017 48.208-.159 52.292-.725 10.627-1.474 16.611-6.492 25.158-10.667l111.043-54.237c12.513-6.111 16.953-22.648 10.978-34.883-3.927-8.04-12.48-13.835-20.893-15.389a32.815 32.815 0 0 0-20.423 3.077l-19.731 9.637c8.659-9.131 9.743-23.392 2.986-34.106-8.516-13.5-25.991-16.265-39.351-8.388l-67.7 39.914c-14.727-1.318-26.443-2.753-36-4.268l69.77-67.113a5.914 5.914 0 0 0-8.2-8.524l-75.888 73c-14.686-3.161-22.676-6.494-31.5-10.034V216.21a5.93 5.93 0 0 0-11.86 0v102.084zm108.377 26.428 59.021-34.8a18.976 18.976 0 0 1 13-2.471c14.292 2.639 17.216 21.83 5.984 28.912l-68.209 43.024c5.256-13.006 1.406-26.873-9.8-34.667zM90.36 162.2a61.341 61.341 0 0 1 61.176 61.176v25.448a5.93 5.93 0 0 1-5.93 5.93H35.113a5.93 5.93 0 0 1-5.93-5.93v-25.449A61.341 61.341 0 0 1 90.36 162.2zm34.824 26.351a49.159 49.159 0 0 1 14.492 34.825v19.519H41.043v-19.52a49.316 49.316 0 0 1 84.141-34.825zM106.742 106.7c-14.555-14.555-39.55-4.2-39.55 16.383s25 30.937 39.55 16.382a23.171 23.171 0 0 0 0-32.765z" fill="#132d8e" opacity="1" data-original="#000000" class=""></path></g></svg>