<svg xmlns="http://www.w3.org/2000/svg" xmlns:xlink="http://www.w3.org/1999/xlink" width="512" height="512" x="0" y="0" viewBox="0 0 512 512" style="enable-background:new 0 0 512 512" xml:space="preserve" class=""><g><path d="M87.328 307.82h42.254a7 7 0 1 0 0-14h-25.12l88.758-88.758c15.929 11.402 35.071 18.585 55.781 19.915v58.944l-17.93-17.929a7 7 0 1 0-9.898 9.899l29.879 29.878c1.366 1.367 3.158 2.05 4.949 2.05s3.583-.684 4.95-2.05l29.878-29.878a7 7 0 0 0-9.9-9.899l-17.928 17.928v-58.944c20.709-1.33 39.851-8.512 55.78-19.915l88.758 88.758h-25.12a7 7 0 0 0 0 14h42.254a7 7 0 0 0 7-7v-42.254a7 7 0 1 0-14 0v25.588l-88.007-88.007c21.175-19.748 34.439-47.873 34.439-79.042C364.105 57.495 315.61 9 256.001 9S147.896 57.495 147.896 117.105c0 31.169 13.265 59.294 34.44 79.042l-88.007 88.007v-25.588a7 7 0 1 0-14 0v42.254a7 7 0 0 0 6.999 7zm330.345-14h-.918l.918-.918zM195.7 189.292c6.996-27.305 31.739-46.736 60.303-46.736 28.562 0 53.304 19.431 60.298 46.736-16.342 13.674-37.375 21.918-60.3 21.918s-43.959-8.244-60.301-21.918zm-33.804-72.187c0-51.89 42.216-94.105 94.105-94.105s94.104 42.215 94.104 94.105c0 23.311-8.523 44.666-22.613 61.122-10.918-29.407-39.215-49.671-71.49-49.671-32.276 0-60.575 20.264-71.495 49.671-14.088-16.456-22.611-37.811-22.611-61.122zM95.247 293.82h-.918v-.918zM80.17 395.165c20.213 0 36.657-16.444 36.657-36.657 0-20.21-16.444-36.652-36.657-36.652s-36.657 16.442-36.657 36.652c0 20.213 16.444 36.657 36.657 36.657zm0-59.309c12.493 0 22.657 10.162 22.657 22.652 0 12.493-10.164 22.657-22.657 22.657s-22.657-10.164-22.657-22.657c0-12.49 10.164-22.652 22.657-22.652zm0 62.401C40.927 398.257 9 430.181 9 469.421c0 7.953 4.273 19.007 24.634 26.503C46.027 500.488 62.553 503 80.168 503s34.141-2.513 46.534-7.076c20.36-7.496 24.634-18.55 24.634-26.503 0-39.24-31.925-71.164-71.166-71.164zM80.168 489C48.646 489 23 480.217 23 469.421c0-31.521 25.646-57.164 57.17-57.164 31.521 0 57.166 25.644 57.166 57.164 0 10.796-25.646 19.579-57.168 19.579zm315.01-130.492c0 20.213 16.444 36.657 36.657 36.657s36.657-16.444 36.657-36.657c0-20.21-16.444-36.652-36.657-36.652s-36.657 16.442-36.657 36.652zm36.657-22.652c12.493 0 22.657 10.162 22.657 22.652 0 12.493-10.164 22.657-22.657 22.657s-22.657-10.164-22.657-22.657c0-12.49 10.164-22.652 22.657-22.652zm0 62.401c-39.243 0-71.17 31.924-71.17 71.164 0 7.953 4.273 19.007 24.634 26.503 12.393 4.563 28.919 7.076 46.533 7.076 17.615 0 34.142-2.513 46.534-7.076 20.36-7.496 24.634-18.55 24.634-26.503 0-39.24-31.925-71.164-71.165-71.164zM431.832 489c-31.521 0-57.167-8.783-57.167-19.579 0-31.521 25.646-57.164 57.17-57.164 31.521 0 57.165 25.644 57.165 57.164C489 480.217 463.354 489 431.832 489zM256.003 321.856c-20.213 0-36.657 16.442-36.657 36.652 0 20.213 16.444 36.657 36.657 36.657s36.657-16.444 36.657-36.657c0-20.21-16.444-36.652-36.657-36.652zm0 59.309c-12.493 0-22.657-10.164-22.657-22.657 0-12.49 10.164-22.652 22.657-22.652s22.657 10.162 22.657 22.652c0 12.493-10.164 22.657-22.657 22.657zm0 17.092c-39.243 0-71.17 31.924-71.17 71.164 0 7.953 4.273 19.007 24.634 26.503C221.859 500.488 238.386 503 256 503c17.615 0 34.142-2.513 46.534-7.076 20.36-7.496 24.634-18.55 24.634-26.503 0-39.24-31.925-71.164-71.165-71.164zM256 489c-31.521 0-57.167-8.783-57.167-19.579 0-31.521 25.646-57.164 57.17-57.164 31.521 0 57.165 25.644 57.165 57.164C313.168 480.217 287.522 489 256 489zm.003-364.895c21.514 0 39.016-17.502 39.016-39.016 0-21.511-17.502-39.012-39.016-39.012s-39.017 17.5-39.017 39.012c0 21.513 17.503 39.016 39.017 39.016zm0-64.028c13.794 0 25.016 11.22 25.016 25.012 0 13.794-11.222 25.016-25.016 25.016s-25.017-11.222-25.017-25.016c0-13.791 11.223-25.012 25.017-25.012z" fill="#132d8e" opacity="1" data-original="#000000"></path></g></svg>